<svg width="109" height="72" viewBox="0 0 109 72" fill="none" xmlns="http://www.w3.org/2000/svg">
<path d="M73.122 47.6727C72.0737 48.8838 70.9235 49.7003 69.9273 50.0964C68.8994 50.5051 68.1827 50.4193 67.8232 50.1081C67.4595 49.7932 67.2523 49.0444 67.4883 47.9164C67.7162 46.827 68.3368 45.5301 69.378 44.3272C70.4198 43.1237 71.665 42.266 72.7658 41.8297C73.3166 41.6114 73.8127 41.5059 74.2171 41.503C74.6237 41.5 74.8971 41.5996 75.0637 41.7438C75.2243 41.8828 75.3511 42.1267 75.39 42.518C75.429 42.909 75.3743 43.4057 75.2134 43.9762C74.8919 45.1155 74.1708 46.4611 73.122 47.6727Z" fill="black" stroke="black"/>
<path d="M24 60L2 50.5L34 32L24 60Z" fill="black" stroke="black"/>
<path d="M37 30.5L26 62L37 71L54.5 22L37 30.5Z" fill="#FDFDFD" stroke="black"/>
<path d="M82.5 17L77.5 33.5L27 59.5L33 42L66 25.5L43 9.5L60 1L82.5 17Z" fill="#FF3636"/>
<path d="M77.5 33.5L82.5 17L60 1L43 9.5L66 25.5M77.5 33.5L27 59.5L33 42L66 25.5M77.5 33.5L66 25.5" stroke="black"/>
<path d="M37 71L37.1977 70.5M102.5 38.5L108 19L100 23.5L93.5 33L92 27L84.5 31L82 37L80.7078 35.8693M102.5 38.5L95.9331 41.8356L97.25 37.25M102.5 38.5L94.8996 42.3605M98.5 32.5L93.7674 42.9356M98.5 32.5L95.25 37.75M98.5 32.5L97.25 37.25M88 37.5L87.303 40.8107M88 37.5L87.3333 39.5M88 37.5L88.958 41.9705M85 46.5L79.5 50L80.3854 45.7942M85 46.5L85.8333 44M85 46.5H86.75M81.5 40.5C81.8882 38.2646 81.8925 37.1412 80.7078 35.8693M81.5 40.5C80.8065 42.5715 80.1234 44.3039 79.3777 45.7942M81.5 40.5L80.3854 45.7942M70.5 54.5L65.5 56.5C61.3491 57.7052 60.4974 56.1311 60.5 51M70.5 54.5C72.7282 53.2742 74.4638 52.0873 75.897 50.6862M70.5 54.5L76.2465 51.8351M60.5 51L57 61L50 64.5M60.5 51L62.25 45.8529M50 64.5L48 57.5L45.5 66.5M50 64.5L48 60M45.5 66.5L38.766 69.7444M45.5 66.5L48 60M37.1977 70.5L44 51L44.5 50.7426M37.1977 70.5L37.9818 70.1222M38.766 69.7444L37.9818 70.1222M38.766 69.7444L44 52.3996M44.5 50.7426L44 52.3996M44.5 50.7426L52.2401 46.7588M37.9818 70.1222L44 52.3996M52.2401 46.7588L54 54.5L54.7738 51.8713M52.2401 46.7588L52.7355 46.5038M57 44.3088L55.5668 45.0465M57 44.3088L56.3802 46.4143M57 44.3088L66.2441 39.5508M53.2308 46.2488L52.7355 46.5038M53.2308 46.2488L53.9041 45.9023M53.2308 46.2488L54.1897 49.7428M54.7738 51.8713L55.3247 50M54.7738 51.8713L54.1897 49.7428M54.5 52.5L52.7355 46.5038M53.9041 45.9023L55.3247 50M53.9041 45.9023L54.406 45.644M55.3247 50L55.6696 48.8282M55.3247 50L54.1897 49.7428M54.9079 45.3856L55.9816 47.7683M54.9079 45.3856L55.5668 45.0465M54.9079 45.3856L54.406 45.644M55.9816 47.7683L56.3802 46.4143M55.9816 47.7683L55.6696 48.8282M55.5668 45.0465L56.3802 46.4143M54.406 45.644L55.6696 48.8282M64 40.7059L62.9512 43.7905M62.25 45.8529C65.2145 41.7313 67.0102 39.8487 70.5 37.3603M62.25 45.8529L62.9512 43.7905M70.5 37.3603L66.2441 39.5508M70.5 37.3603L71.7218 36.7314M62.9512 43.7905L64.8267 41.3757L66.2441 39.5508M71.7218 36.7314C75.8726 35.2706 78.0475 34.598 80 35.25M71.7218 36.7314L76.0571 34.5M80 35.25L79 34.375M80 35.25L80.7078 35.8693M76.0571 34.5L78 33.5L79 34.375M76.0571 34.5L79 34.375M76.5 51.7063L79.3777 45.7942M76.5 51.7063L77.7254 51.0839M76.5 51.7063L76.2465 51.8351M79.3777 45.7942C78.9039 46.7411 78.4049 47.5903 77.8619 48.3667M78 50.9444L80.3854 45.7942M78 50.9444L77.7254 51.0839M78 50.9444L86.75 46.5M77.7254 51.0839L77.8619 48.3667M77.8619 48.3667C77.2678 49.2163 76.621 49.9786 75.897 50.6862M75.897 50.6862L76.2465 51.8351M89 42.5L88.3939 42.607M86.1667 43L85.8333 44M86.1667 43L87.4103 42.7805M86.1667 43L86.5 42M85.8333 44L89.2857 43.5M89.2857 43.5L89.4299 44.1729M89.2857 43.5L88.958 41.9705M85.5 45.5L89.4299 44.1729M89.4299 44.1729L89.5 44.5L92 43L95.25 37.75M86 47L87.303 40.8107M88.7188 45.5L86.5 45L87.1203 46.3119M88.7188 45.5L87.1203 46.3119M88.7188 45.5L92.7531 43.4508M87.1203 46.3119L86.9351 46.406M86.75 46.5L86.9351 46.406M87.4103 42.7805L86.9351 46.406M87.4103 42.7805L88.3939 42.607M87.303 40.8107L88.958 41.9705M87.3333 39.5L89 42L88.958 41.9705M87.3333 39.5L86.5 42M86.5 42L88.958 41.9705M88.3939 42.607L89 45.5M93.7674 42.9356L92.7531 43.4508M93.7674 42.9356L94.8996 42.3605M95.25 37.75L92.7531 43.4508M97.25 37.25L94.8996 42.3605M48 60V59" stroke="black"/>
<path d="M69.0819 62.7056C69.0059 62.5602 68.9933 62.4135 69.0443 62.2655C69.0952 62.1174 69.1939 62.0066 69.3405 61.9329C69.4813 61.8592 69.6233 61.8432 69.7667 61.8848C69.9112 61.9229 70.0208 62.0135 70.0957 62.1566C70.1729 62.3043 70.1842 62.4516 70.1298 62.5985C70.0777 62.7442 69.9796 62.8533 69.8353 62.9258C69.6969 62.9983 69.5543 63.0161 69.4074 62.9792C69.2629 62.941 69.1544 62.8499 69.0819 62.7056ZM73.3547 59.4208C73.3101 59.2799 73.2435 59.1764 73.1549 59.1102C73.0674 59.0406 72.9665 58.9965 72.8524 58.9781C72.737 58.9574 72.6165 58.9524 72.4907 58.9632C72.3638 58.9716 72.2398 58.983 72.1187 58.9972C71.9068 59.0221 71.6931 59.0348 71.4777 59.0353C71.261 59.0334 71.0525 59.0071 70.8521 58.9563C70.6517 58.9055 70.471 58.8185 70.31 58.6954C70.1513 58.5712 70.024 58.3962 69.928 58.1705C69.8203 57.9156 69.7813 57.6671 69.8111 57.4248C69.842 57.179 69.923 56.9488 70.0541 56.7342C70.1853 56.5196 70.3485 56.3283 70.5438 56.1601C70.7414 55.9908 70.9519 55.853 71.1752 55.7465C71.4894 55.5944 71.8007 55.5209 72.1094 55.5261C72.4192 55.5277 72.7012 55.6104 72.9554 55.774C73.2108 55.9342 73.414 56.176 73.5649 56.4994L72.6331 56.9679C72.5594 56.798 72.4659 56.6672 72.3527 56.5754C72.2407 56.4802 72.1125 56.4281 71.9681 56.4191C71.8225 56.4077 71.6636 56.4424 71.4914 56.5232C71.3413 56.5957 71.2088 56.6915 71.0937 56.8105C70.9787 56.9296 70.8969 57.0654 70.8483 57.2181C70.7997 57.3708 70.8036 57.5321 70.8598 57.702C70.8997 57.8277 70.9663 57.9195 71.0596 57.9776C71.1529 58.0356 71.2584 58.0715 71.376 58.0852C71.496 58.0977 71.6177 58.0992 71.7411 58.0896C71.8657 58.0765 71.9787 58.0635 72.0799 58.0505C72.3023 58.0232 72.5236 58.0111 72.7437 58.0141C72.9638 58.0171 73.1729 58.0475 73.371 58.1053C73.5692 58.1631 73.747 58.2588 73.9045 58.3924C74.062 58.5259 74.1894 58.7097 74.2865 58.9436C74.3942 59.2042 74.4344 59.4551 74.407 59.6962C74.3795 59.9374 74.3008 60.1635 74.1709 60.3745C74.042 60.5821 73.8794 60.7688 73.6829 60.9346C73.4888 61.0993 73.2783 61.2371 73.0515 61.3483C72.8025 61.4676 72.5517 61.5456 72.299 61.5823C72.0452 61.6166 71.8006 61.6055 71.5653 61.5489C71.3322 61.4912 71.1212 61.3845 70.9322 61.2289C70.742 61.0709 70.5861 60.8593 70.4644 60.594L71.4014 60.1273C71.4658 60.2786 71.5435 60.4013 71.6346 60.4954C71.7245 60.5872 71.8265 60.651 71.9407 60.6869C72.0538 60.7204 72.1761 60.7289 72.3076 60.7123C72.438 60.6934 72.5759 60.6488 72.7214 60.5786C72.8714 60.5061 73.0034 60.412 73.1173 60.2965C73.2335 60.1798 73.3159 60.048 73.3645 59.9011C73.4119 59.752 73.4087 59.5918 73.3547 59.4208ZM75.9009 53.4581L77.5761 58.9818L76.6408 59.452L74.9691 53.9266L75.9009 53.4581ZM77.4331 52.6879L77.6812 53.5119L73.706 55.5104L73.4579 54.6863L77.4331 52.6879ZM79.0454 51.8773L80.7171 57.4027L79.7818 57.8729L78.1101 52.3475L79.0454 51.8773ZM84.0316 53.6465L84.9442 53.1746C85.079 53.5703 85.1101 53.951 85.0375 54.3169C84.9673 54.6816 84.8125 55.0115 84.5732 55.3067C84.3328 55.5995 84.0294 55.8337 83.6629 56.0092C83.322 56.1718 83.0019 56.2424 82.7025 56.2209C82.4043 56.1959 82.1322 56.101 81.8861 55.9362C81.6388 55.769 81.4229 55.554 81.2383 55.2912C81.0537 55.0284 80.9069 54.7394 80.7979 54.424L80.659 54.0085C80.5477 53.671 80.4799 53.3247 80.4559 52.9695C80.4318 52.6144 80.4625 52.2725 80.548 51.9439C80.6322 51.6129 80.7789 51.3133 80.988 51.045C81.1982 50.7732 81.4795 50.553 81.832 50.3846C82.1985 50.2091 82.5442 50.1344 82.8692 50.1604C83.193 50.1842 83.4873 50.2942 83.7521 50.4904C84.0193 50.6855 84.2487 50.9534 84.4404 51.2942L83.5086 51.7627C83.4103 51.5673 83.2982 51.408 83.1721 51.2848C83.0449 51.1593 82.8998 51.0851 82.7367 51.0621C82.5724 51.0369 82.3827 51.074 82.1674 51.1734C81.9336 51.2823 81.7586 51.4271 81.6425 51.6078C81.5276 51.7851 81.457 51.9838 81.4307 52.204C81.4032 52.4218 81.4078 52.6454 81.4444 52.8748C81.4799 53.1018 81.5322 53.3189 81.6013 53.526L81.7455 53.952C81.8041 54.1207 81.8784 54.3005 81.9685 54.4913C82.061 54.6809 82.1708 54.8501 82.2981 54.9989C82.4265 55.1442 82.5758 55.2441 82.7459 55.2984C82.9149 55.3505 83.1094 55.3256 83.3293 55.2238C83.5561 55.1185 83.7294 54.9876 83.849 54.8313C83.9709 54.6738 84.0456 54.4949 84.0732 54.2945C84.1007 54.0942 84.0868 53.8781 84.0316 53.6465ZM85.5194 48.6226L87.1911 54.148L86.2523 54.6199L84.5771 49.0963L85.5194 48.6226ZM88.5104 47.1189L87.3428 50.8319L86.6064 52.7761L86.1028 51.7745L86.5345 50.259L87.2994 47.7277L88.5104 47.1189ZM89.1385 53.1689L86.7797 51.3293L87.223 50.3675L90.1995 52.6355L89.1385 53.1689ZM93.5374 50.0131L93.7838 50.8336L91.2989 52.0828L91.0525 51.2623L93.5374 50.0131ZM89.9169 46.4118L91.5885 51.9372L90.6497 52.4092L88.9746 46.8856L89.9169 46.4118ZM93.7245 44.4976L95.3962 50.023L94.4608 50.4932L92.7892 44.9678L93.7245 44.4976ZM96.7364 42.9834L98.4116 48.507L97.4762 48.9773L95.8046 43.4519L96.7364 42.9834ZM98.2685 42.2132L98.5166 43.0372L94.5415 45.0356L94.2934 44.2116L98.2685 42.2132ZM103.582 44.9634L103.828 45.784L101.204 47.1034L100.954 46.2846L103.582 44.9634ZM99.8216 41.4324L101.493 46.9578L100.554 47.4297L98.8793 41.9061L99.8216 41.4324ZM102.502 42.7123L102.747 43.5118L100.461 44.661L100.22 43.8597L102.502 42.7123ZM102.142 40.2656L102.391 41.0896L99.7765 42.4038L99.5319 41.578L102.142 40.2656Z" fill="black"/>
</svg>
