<svg width="215" height="142" viewBox="0 0 215 142" fill="none" xmlns="http://www.w3.org/2000/svg">
<path d="M144.622 94.6724C142.483 97.1427 140.12 98.8298 138.039 99.6572C135.926 100.497 134.254 100.403 133.319 99.594C132.38 98.7811 132.004 97.0403 132.487 94.7301C132.962 92.4585 134.246 89.7891 136.378 87.327C138.51 84.8642 141.065 83.0989 143.347 82.1944C144.489 81.742 145.543 81.5122 146.43 81.5057C147.32 81.4993 148 81.7161 148.454 82.1094C148.903 82.4974 149.191 83.123 149.277 83.9862C149.363 84.8491 149.241 85.9078 148.908 87.0879C148.242 89.4464 146.761 92.2016 144.622 94.6724Z" fill="black" stroke="black"/>
<path d="M46 119L2 100L66 63L46 119Z" fill="black" stroke="black"/>
<path d="M72 60L50 123L72 141L107 43L72 60Z" fill="#FDFDFD" stroke="black"/>
<path d="M163 33L153 66L52 118L64 83L130 50L84 18L118 1L163 33Z" fill="#FF3636"/>
<path d="M153 66L163 33L118 1L84 18L130 50M153 66L52 118L64 83L130 50M153 66L130 50" stroke="black"/>
<path d="M107.816 89.7713L109.963 94.5366L110.76 91.8287L109.134 89.093L107.816 89.7713Z" fill="black"/>
<path d="M112 87.6176L109.134 89.093L110.76 91.8287L112 87.6176Z" fill="black"/>
<path d="M109.963 94.5366L107.816 89.7713L106.812 90.2879L109.339 96.6564L109.963 94.5366Z" fill="black"/>
<path d="M105.808 90.8046L108.649 99L109.339 96.6564L106.812 90.2879L105.808 90.8046Z" fill="black"/>
<path d="M102.48 92.5176L106 108L107.548 102.743L106.379 98.4857L104.462 91.4977L103.471 92.0076L102.48 92.5176Z" fill="black"/>
<path d="M107.548 102.743L108.649 99L106.379 98.4857L107.548 102.743Z" fill="black"/>
<path d="M105.808 90.8046L104.462 91.4977L106.379 98.4857L108.649 99L105.808 90.8046Z" fill="black"/>
<path d="M161 80C159.613 84.143 158.247 87.6078 156.755 90.5884L153.663 96.9412L153.451 101.168L154 100.889L158.771 90.5884L161 80Z" fill="black"/>
<path d="M168 92L157 99L158.771 90.5884L154 100.889L170.056 92.7334L170.211 92H168Z" fill="black"/>
<path d="M153.724 95.7334C152.536 97.4325 151.242 98.9571 149.794 100.372L150.493 102.67L151 102.413L153.663 96.9412L153.724 95.7334Z" fill="black"/>
<path d="M151 102.413L153.451 101.168L153.663 96.9412L151 102.413Z" fill="black"/>
<path d="M149.794 100.372C146.928 103.175 143.456 105.548 139 108L150.493 102.67L149.794 100.372Z" fill="black"/>
<path d="M175.203 86.1981L172.556 86.5816L172.252 88.902L175.537 87.7924L175.203 86.1981Z" fill="black"/>
<path d="M175.537 87.7924L172.252 88.902L172.203 89.2712L175.438 90L175.946 89.7418L175.537 87.7924Z" fill="black"/>
<path d="M171.97 91.0515L171.132 89.2799L170.756 89.4069L170.211 92H171.5L171.87 91.8119L171.97 91.0515Z" fill="black"/>
<path d="M172.241 91.6239L175.438 90L172.203 89.2712L171.97 91.0515L172.241 91.6239Z" fill="black"/>
<path d="M169.667 87L168 92H170.211L170.756 89.4069L171.313 86.7615L169.667 87Z" fill="black"/>
<path d="M171.736 84.7524L172.821 84.5611L174.788 84.2139L175.203 86.1981L176.571 86L175.916 82.9411L172.108 82.9867L171.736 84.7524Z" fill="black"/>
<path d="M173.04 78.56L172.606 80.6213L175.916 82.9411L175.895 82.8421L173.04 78.56Z" fill="black"/>
<path d="M173.04 78.56L175.895 82.8421L174 74L173.04 78.56Z" fill="black"/>
<path d="M175.916 82.9411L172.606 80.6213L172.108 82.9867L175.916 82.9411Z" fill="black"/>
<path d="M174.788 84.2139L172.821 84.5611L172.556 86.5816L175.203 86.1981L174.788 84.2139Z" fill="black"/>
<path d="M170.333 85L169.667 87L171.313 86.7615L171.736 84.7524L170.333 85Z" fill="black"/>
<path d="M172.252 88.902L172.556 86.5816L171.313 86.7615L170.756 89.4069L171.132 89.2799L171 89L171.577 89.1299L172.252 88.902Z" fill="black"/>
<path d="M172.556 86.5816L172.821 84.5611L171.736 84.7524L171.313 86.7615L172.556 86.5816Z" fill="black"/>
<path d="M171 83L170.333 85L171.736 84.7524L172.108 82.9867L171 83Z" fill="black"/>
<path d="M176.86 87.3459L176.571 86L175.203 86.1981L175.537 87.7924L176.86 87.3459Z" fill="black"/>
<path d="M182 85L177 88L176.86 87.3459L175.537 87.7924L175.946 89.7418L183.506 85.9016L188.5 74.5L182 85Z" fill="black"/>
<path d="M185.535 84.8712L195 64L188.5 74.5L183.506 85.9016L185.535 84.8712Z" fill="black"/>
<path d="M195 64L185.535 84.8712L187.799 83.721L192.5 73.5L195 64Z" fill="black"/>
<path d="M189.866 82.6712L192.5 73.5L187.799 83.721L189.866 82.6712Z" fill="black"/>
<path d="M154 66L150.114 68L156 67.75L154 66Z" fill="black"/>
<path d="M141.444 72.4629C149.745 69.5412 154.095 68.196 158 69.5L156 67.75L150.114 68L141.444 72.4629Z" fill="black"/>
<path d="M122.5 90.7059C128.429 82.4626 132.02 78.6973 139 73.7206L130.488 78.1017L127.653 81.7514L123.902 86.581L122.5 90.7059Z" fill="black"/>
<path d="M126 80.4118L123.902 86.581L127.653 81.7514L130.488 78.1017L126 80.4118Z" fill="black"/>
<path d="M98 128L94 114L89 132L94 119L98 128Z" fill="black"/>
<path d="M73.9637 139.244L75.532 138.489L86 103.799L73.9637 139.244Z" fill="black"/>
<path d="M86 101L72.3953 140L73.9637 139.244L86 103.799L87 100.485L86 101Z" fill="black"/>
<path d="M72 141L72.3953 140M203 76L214 37L198 46L185 65L182 53L167 61L162 73L159.416 70.7386M203 76L189.866 82.6712M203 76L187.799 83.721M189.866 82.6712L192.5 73.5M189.866 82.6712L187.799 83.721M195 64L185.535 84.8712M195 64L188.5 74.5M195 64L192.5 73.5M174 74L172.667 78M174 74L175.895 82.8421M174 74L173.04 78.56M168 92L157 99L158.771 90.5884M168 92L169.667 87M168 92H170.211M161 80C161.776 75.5293 161.785 73.2824 159.416 70.7386M161 80C159.613 84.143 158.247 87.6078 156.755 90.5884M161 80L158.771 90.5884M139 108L129 112C120.698 114.41 118.995 111.262 119 101M139 108C143.456 105.548 146.928 103.175 149.794 100.372M139 108L150.493 102.67M119 101L112 121L98 128M119 101L122.5 90.7059M98 128L94 114L89 132M98 128L94 119M89 132L75.532 138.489M89 132L94 119M72.3953 140L86 101L87 100.485M72.3953 140L73.9637 139.244M75.532 138.489L73.9637 139.244M75.532 138.489L86 103.799M87 100.485L86 103.799M87 100.485L102.48 92.5176M73.9637 139.244L86 103.799M102.48 92.5176L106 108L107.548 102.743M102.48 92.5176L103.471 92.0076M112 87.6176L109.134 89.093M112 87.6176L110.76 91.8287M112 87.6176L130.488 78.1017M104.462 91.4977L103.471 92.0076M104.462 91.4977L105.808 90.8046M104.462 91.4977L106.379 98.4857M107.548 102.743L108.649 99M107.548 102.743L106.379 98.4857M107 104L103.471 92.0076M105.808 90.8046L108.649 99M105.808 90.8046L106.812 90.2879M108.649 99L109.339 96.6564M108.649 99L106.379 98.4857M107.816 89.7713L109.963 94.5366M107.816 89.7713L109.134 89.093M107.816 89.7713L106.812 90.2879M109.963 94.5366L110.76 91.8287M109.963 94.5366L109.339 96.6564M109.134 89.093L110.76 91.8287M106.812 90.2879L109.339 96.6564M122.5 90.7059C128.429 82.4626 132.02 78.6973 139 73.7206M122.5 90.7059L123.902 86.581M139 73.7206L130.488 78.1017M139 73.7206L141.444 72.4629M123.902 86.581L126 80.4118L130.488 78.1017M123.902 86.581L127.653 81.7514L130.488 78.1017M141.444 72.4629C149.745 69.5412 154.095 68.196 158 69.5M141.444 72.4629L150.114 68M158 69.5L156 67.75M158 69.5L159.416 70.7386M150.114 68L154 66L156 67.75M150.114 68L156 67.75M151 102.413L153.451 101.168M151 102.413L150.493 102.67M151 102.413L153.663 96.9412M156.755 90.5884C155.808 92.4823 154.81 94.1807 153.724 95.7334M156.755 90.5884L153.663 96.9412M154 100.889L158.771 90.5884M154 100.889L153.451 101.168M154 100.889L170.056 92.7334M153.451 101.168L153.663 96.9412M153.724 95.7334C152.536 97.4325 151.242 98.9571 149.794 100.372M153.724 95.7334L153.663 96.9412M149.794 100.372L150.493 102.67M176 84L174.788 84.2139M170.333 85L169.667 87M170.333 85L171 83M170.333 85L171.736 84.7524M169.667 87L171.313 86.7615M176.571 86L176.86 87.3459M176.571 86L175.916 82.9411M176.571 86L175.203 86.1981M169 90L170.756 89.4069M176.86 87.3459L177 88L182 85L188.5 74.5M176.86 87.3459L175.537 87.7924M170 93L170.056 92.7334M175.438 90L172.241 91.6239M175.438 90L172.203 89.2712M175.438 90L175.946 89.7418M172.241 91.6239L171.87 91.8119M172.241 91.6239L171.97 91.0515M171.5 92L171.87 91.8119M171.5 92H170.211M171.5 92L170.056 92.7334M172.821 84.5611L174.788 84.2139M172.821 84.5611L172.556 86.5816M172.821 84.5611L171.736 84.7524M171.87 91.8119L171.97 91.0515M172.606 80.6213L175.916 82.9411M172.606 80.6213L172.108 82.9867M172.606 80.6213L173.04 78.56M172.667 78L171 83M172.667 78L173.04 78.56M171 83L172.108 82.9867M175.916 82.9411L176 83L175.895 82.8421M175.916 82.9411L172.108 82.9867M175.916 82.9411L175.895 82.8421M174.788 84.2139L175.203 86.1981M176 90L175.946 89.7418M185.535 84.8712L183.506 85.9016M185.535 84.8712L187.799 83.721M188.5 74.5L183.506 85.9016M183.506 85.9016L175.946 89.7418M192.5 73.5L187.799 83.721M94 119V117M170.056 92.7334L170.211 92M170.211 92L170.756 89.4069M175.203 86.1981L172.556 86.5816M175.203 86.1981L175.537 87.7924M172.556 86.5816L172.252 88.902M172.556 86.5816L171.313 86.7615M172.252 88.902L175.537 87.7924M172.252 88.902L172.203 89.2712M172.252 88.902L171.577 89.1299M175.537 87.7924L175.946 89.7418M172.203 89.2712L171.97 91.0515M172.203 89.2712L171.577 89.1299M171.97 91.0515L171.132 89.2799M171.132 89.2799L170.756 89.4069M171.132 89.2799L171 89L171.577 89.1299M171.132 89.2799L171.577 89.1299M170.756 89.4069L171.313 86.7615M171.313 86.7615L171.736 84.7524M171.736 84.7524L172.108 82.9867M173.04 78.56L175.895 82.8421" stroke="black"/>
<path d="M137.613 124.305C137.461 124.014 137.436 123.72 137.538 123.424C137.64 123.128 137.837 122.907 138.13 122.759C138.412 122.612 138.696 122.58 138.982 122.663C139.271 122.739 139.491 122.92 139.641 123.207C139.795 123.502 139.818 123.797 139.709 124.09C139.605 124.382 139.408 124.6 139.12 124.745C138.843 124.89 138.558 124.926 138.264 124.852C137.975 124.776 137.758 124.593 137.613 124.305ZM146.159 117.735C146.069 117.453 145.936 117.246 145.759 117.114C145.584 116.975 145.382 116.886 145.154 116.85C144.923 116.808 144.682 116.798 144.431 116.82C144.177 116.837 143.929 116.859 143.687 116.888C143.263 116.938 142.835 116.963 142.404 116.964C141.971 116.96 141.554 116.908 141.153 116.806C140.752 116.704 140.391 116.531 140.069 116.284C139.752 116.036 139.497 115.686 139.305 115.234C139.09 114.725 139.012 114.228 139.071 113.743C139.133 113.251 139.295 112.791 139.557 112.362C139.82 111.933 140.146 111.55 140.537 111.214C140.932 110.875 141.353 110.599 141.8 110.386C142.428 110.082 143.051 109.935 143.668 109.946C144.287 109.949 144.852 110.114 145.36 110.442C145.871 110.762 146.277 111.245 146.579 111.892L144.715 112.829C144.568 112.489 144.381 112.228 144.155 112.044C143.931 111.854 143.674 111.75 143.385 111.732C143.094 111.709 142.776 111.778 142.432 111.94C142.132 112.085 141.867 112.276 141.637 112.515C141.407 112.753 141.243 113.024 141.146 113.33C141.049 113.635 141.056 113.958 141.169 114.297C141.249 114.549 141.382 114.733 141.568 114.849C141.755 114.965 141.966 115.036 142.201 115.064C142.441 115.089 142.685 115.092 142.931 115.073C143.181 115.047 143.406 115.02 143.609 114.994C144.054 114.94 144.496 114.916 144.937 114.922C145.377 114.928 145.795 114.988 146.191 115.104C146.587 115.22 146.943 115.411 147.258 115.678C147.573 115.945 147.828 116.313 148.022 116.781C148.238 117.302 148.318 117.804 148.263 118.286C148.208 118.768 148.051 119.22 147.791 119.643C147.533 120.058 147.208 120.431 146.815 120.763C146.427 121.092 146.006 121.368 145.552 121.59C145.054 121.829 144.553 121.985 144.047 122.058C143.54 122.127 143.05 122.104 142.58 121.991C142.114 121.876 141.692 121.663 141.314 121.351C140.933 121.035 140.621 120.612 140.378 120.081L142.252 119.148C142.381 119.451 142.536 119.696 142.718 119.884C142.898 120.068 143.102 120.195 143.331 120.267C143.557 120.334 143.801 120.351 144.064 120.318C144.325 120.28 144.601 120.191 144.892 120.051C145.192 119.906 145.456 119.718 145.684 119.486C145.916 119.253 146.081 118.989 146.178 118.696C146.273 118.397 146.266 118.077 146.159 117.735ZM151.251 105.81L154.601 116.857L152.731 117.797L149.387 106.747L151.251 105.81ZM154.315 104.269L154.812 105.917L146.861 109.914L146.365 108.266L154.315 104.269ZM157.54 102.648L160.883 113.699L159.013 114.639L155.669 103.588L157.54 102.648ZM167.512 106.186L169.338 105.243C169.607 106.034 169.669 106.796 169.524 107.527C169.384 108.257 169.074 108.916 168.596 109.507C168.115 110.092 167.508 110.561 166.775 110.912C166.093 111.237 165.453 111.378 164.854 111.335C164.258 111.285 163.714 111.095 163.221 110.766C162.727 110.431 162.295 110.002 161.926 109.476C161.557 108.95 161.263 108.372 161.045 107.741L160.767 106.91C160.544 106.235 160.409 105.543 160.361 104.833C160.313 104.122 160.374 103.438 160.545 102.781C160.714 102.119 161.007 101.52 161.425 100.983C161.845 100.44 162.408 99.9995 163.113 99.6626C163.846 99.3116 164.538 99.1621 165.188 99.2143C165.835 99.2618 166.424 99.4818 166.953 99.8743C167.488 100.264 167.947 100.8 168.33 101.482L166.466 102.419C166.27 102.028 166.046 101.709 165.793 101.463C165.539 101.212 165.249 101.064 164.923 101.018C164.594 100.967 164.214 101.041 163.784 101.24C163.316 101.458 162.966 101.748 162.734 102.109C162.504 102.464 162.363 102.861 162.311 103.301C162.256 103.737 162.265 104.184 162.338 104.643C162.409 105.097 162.513 105.531 162.652 105.946L162.94 106.797C163.057 107.135 163.206 107.494 163.386 107.876C163.571 108.255 163.791 108.594 164.045 108.891C164.302 109.182 164.601 109.382 164.941 109.49C165.279 109.594 165.668 109.545 166.108 109.341C166.561 109.13 166.908 108.869 167.147 108.556C167.391 108.241 167.54 107.883 167.595 107.483C167.651 107.082 167.623 106.65 167.512 106.186ZM170.488 96.1386L173.831 107.189L171.954 108.133L168.603 97.0861L170.488 96.1386ZM176.47 93.1313L174.135 100.557L172.662 104.446L171.655 102.442L172.518 99.4114L174.048 94.3489L176.47 93.1313ZM177.726 105.231L173.008 101.552L173.895 99.6285L179.848 104.164L177.726 105.231ZM186.524 98.9196L187.017 100.561L182.047 103.059L181.554 101.418L186.524 98.9196ZM179.283 91.7171L182.626 102.768L180.749 103.712L177.398 92.6646L179.283 91.7171ZM186.898 87.8886L190.242 98.9394L188.371 99.8798L185.028 88.8291L186.898 87.8886ZM192.922 84.8603L196.272 95.9075L194.402 96.848L191.058 85.7972L192.922 84.8603ZM195.986 83.3197L196.482 84.9678L188.532 88.9647L188.036 87.3166L195.986 83.3197ZM206.613 88.8203L207.105 90.4614L201.856 93.1002L201.357 91.4627L206.613 88.8203ZM199.092 81.7582L202.436 92.809L200.558 93.7529L197.208 82.7057L199.092 81.7582ZM204.454 84.3179L204.943 85.9171L200.371 88.2155L199.889 86.6129L204.454 84.3179ZM203.734 79.4246L204.23 81.0726L199.002 83.701L198.513 82.0494L203.734 79.4246Z" fill="black"/>
</svg>
