<svg width="76" height="76" viewBox="0 0 76 76" fill="none" xmlns="http://www.w3.org/2000/svg">
<circle cx="38" cy="38" r="38" fill="#E4E4E4"/>
<circle cx="38.5" cy="38.5" r="26" fill="white" stroke="black" stroke-width="3"/>
<path d="M27.6095 21C27.6095 21 25.277 25.4663 25.489 28.4438C25.489 29.0818 25.7011 29.5072 25.9131 29.9326L33.1228 39.0778L29.9421 42.906C29.3059 42.6934 28.6698 42.4807 27.8216 42.268C24.0047 42.0553 20.6118 45.2455 21.0359 49.2864C21.248 51.8386 23.1565 54.1781 25.7011 54.8161C28.4577 55.4541 31.0023 54.3907 32.4867 52.2639L38 45.2455L43.5133 52.2639C44.9977 54.3907 47.5423 55.4541 50.2989 54.8161C52.8435 54.1781 54.54 51.8386 54.9641 49.2864C55.3882 45.2455 51.9953 42.0553 48.1784 42.4807C47.5423 42.4807 46.6941 42.6934 46.0579 43.1187L42.8772 39.2905L50.0869 30.1452C50.2989 29.7199 50.511 29.2945 50.511 28.6565C50.723 25.679 48.3905 21.2127 48.3905 21.2127L38 33.3354L27.6095 21V21ZM30.7903 49.0737C30.5782 50.9879 28.8818 52.4766 26.9734 52.2639C25.0649 52.0513 23.5806 50.3498 23.7926 48.4357C24.0047 46.5216 25.7011 45.0328 27.6095 45.2455C29.518 45.2455 31.0023 47.1596 30.7903 49.0737ZM52.2074 48.4357C52.4194 50.3498 50.9351 52.0513 49.0266 52.2639C47.1182 52.4766 45.4218 50.9879 45.2097 49.0737C44.9977 47.1596 46.482 45.4582 48.3905 45.2455C50.2989 45.0328 51.9953 46.5216 52.2074 48.4357V48.4357ZM27.8216 28.6565C27.8216 28.6565 27.8216 28.4438 27.8216 28.2311C27.8216 27.3804 28.0336 26.317 28.2457 25.2536L40.3326 39.7158L38 41.63L27.8216 28.6565V28.6565ZM47.7543 25.2536C48.1784 26.317 48.3905 27.3804 48.1784 28.2311C48.1784 28.4438 48.1784 28.6565 48.1784 28.6565L41.3928 37.1637L39.4844 35.0369L47.7543 25.2536V25.2536Z" fill="black"/>
<path d="M65.3492 38.7593L70.2967 43H6.70326L11.6508 38.7593C11.8724 38.5693 12 38.2919 12 38C12 37.7081 11.8724 37.4307 11.6508 37.2407L6.70326 33H70.2967L65.3492 37.2407C65.1276 37.4307 65 37.7081 65 38C65 38.2919 65.1276 38.5693 65.3492 38.7593Z" fill="white" stroke="black" stroke-width="2" stroke-linejoin="round"/>
<path d="M17.264 38.184C17.264 37.6293 17.384 37.136 17.624 36.704C17.864 36.2667 18.1973 35.928 18.624 35.688C19.056 35.4427 19.544 35.32 20.088 35.32C20.7547 35.32 21.3253 35.496 21.8 35.848C22.2747 36.2 22.592 36.68 22.752 37.288H21.248C21.136 37.0533 20.976 36.8747 20.768 36.752C20.5653 36.6293 20.3333 36.568 20.072 36.568C19.6507 36.568 19.3093 36.7147 19.048 37.008C18.7867 37.3013 18.656 37.6933 18.656 38.184C18.656 38.6747 18.7867 39.0667 19.048 39.36C19.3093 39.6533 19.6507 39.8 20.072 39.8C20.3333 39.8 20.5653 39.7387 20.768 39.616C20.976 39.4933 21.136 39.3147 21.248 39.08H22.752C22.592 39.688 22.2747 40.168 21.8 40.52C21.3253 40.8667 20.7547 41.04 20.088 41.04C19.544 41.04 19.056 40.92 18.624 40.68C18.1973 40.4347 17.864 40.096 17.624 39.664C17.384 39.232 17.264 38.7387 17.264 38.184ZM26.1337 35.384V38.744C26.1337 39.08 26.2164 39.3387 26.3817 39.52C26.5471 39.7013 26.7898 39.792 27.1098 39.792C27.4298 39.792 27.6751 39.7013 27.8458 39.52C28.0164 39.3387 28.1017 39.08 28.1017 38.744V35.384H29.4697V38.736C29.4697 39.2373 29.3631 39.6613 29.1498 40.008C28.9364 40.3547 28.6484 40.616 28.2857 40.792C27.9284 40.968 27.5284 41.056 27.0857 41.056C26.6431 41.056 26.2457 40.9707 25.8937 40.8C25.5471 40.624 25.2724 40.3627 25.0697 40.016C24.8671 39.664 24.7657 39.2373 24.7657 38.736V35.384H26.1337ZM35.6704 35.384V36.48H34.1824V41H32.8144V36.48H31.3264V35.384H35.6704ZM41.5969 35.384V36.48H40.1089V41H38.7409V36.48H37.2529V35.384H41.5969ZM44.8515 35.384V41H43.4835V35.384H44.8515ZM52.0669 41H50.6989L48.4109 37.536V41H47.0429V35.384H48.4109L50.6989 38.864V35.384H52.0669V41ZM57.9865 37.16C57.8852 36.9733 57.7385 36.832 57.5465 36.736C57.3598 36.6347 57.1385 36.584 56.8825 36.584C56.4398 36.584 56.0852 36.7307 55.8185 37.024C55.5518 37.312 55.4185 37.6987 55.4185 38.184C55.4185 38.7013 55.5572 39.1067 55.8345 39.4C56.1172 39.688 56.5038 39.832 56.9945 39.832C57.3305 39.832 57.6132 39.7467 57.8425 39.576C58.0772 39.4053 58.2478 39.16 58.3545 38.84H56.6185V37.832H59.5945V39.104C59.4932 39.4453 59.3198 39.7627 59.0745 40.056C58.8345 40.3493 58.5278 40.5867 58.1545 40.768C57.7812 40.9493 57.3598 41.04 56.8905 41.04C56.3358 41.04 55.8398 40.92 55.4025 40.68C54.9705 40.4347 54.6318 40.096 54.3865 39.664C54.1465 39.232 54.0265 38.7387 54.0265 38.184C54.0265 37.6293 54.1465 37.136 54.3865 36.704C54.6318 36.2667 54.9705 35.928 55.4025 35.688C55.8345 35.4427 56.3278 35.32 56.8825 35.32C57.5545 35.32 58.1198 35.4827 58.5785 35.808C59.0425 36.1333 59.3492 36.584 59.4985 37.16H57.9865Z" fill="black"/>
</svg>
