<svg width="76" height="76" viewBox="0 0 76 76" fill="none" xmlns="http://www.w3.org/2000/svg">
<circle cx="38" cy="38" r="38" fill="#E4E4E4"/>
<circle cx="38.5" cy="38.5" r="26" fill="white" stroke="black" stroke-width="3"/>
<path d="M17.0123 26.9646L32.0061 29.3291C32.4529 29.3995 32.9068 29.645 33.2678 30.0115C33.6289 30.378 33.8675 30.8355 33.9313 31.2834L35.8301 44.6224C35.8938 45.0702 36.1325 45.5277 36.4935 45.8942C36.8546 46.2607 37.3084 46.5062 37.7553 46.5766L43.9163 47.5482C44.3631 47.6187 44.817 47.8642 45.178 48.2307C45.5391 48.5972 45.7777 49.0546 45.8415 49.5025L47.6407 62.1421" stroke="black" stroke-width="2" stroke-linecap="round" stroke-linejoin="round"/>
<circle cx="51.9775" cy="49.9774" r="2.8125" transform="rotate(45.4299 51.9775 49.9774)" fill="black"/>
<path d="M55 34.0833L55 30.9167L53.1 30.2833C52.9417 29.8083 52.7833 29.175 52.4667 28.7L53.4167 26.8L51.0417 24.7417L49.3 25.5333C48.825 25.2167 48.35 25.0583 47.7167 24.9L47.0833 23L43.9167 23L43.2833 24.9C42.8083 25.0583 42.175 25.2167 41.7 25.5333L39.9583 24.7417L37.7417 26.9583L38.6917 28.8583C38.375 29.3333 38.2167 29.8083 38.0583 30.4417L36 30.9167L36 34.0833L37.9 34.7167C38.0583 35.1917 38.2167 35.825 38.5333 36.3L37.7417 38.0417L39.9583 40.2583L41.8583 39.3083C42.3333 39.625 42.8083 39.7833 43.4417 39.9417L43.9167 42L47.0833 42L47.7167 40.1C48.1917 39.9417 48.825 39.7833 49.3 39.4667L51.2 40.4167L53.4167 38.2L52.4667 36.3C52.7833 35.825 52.9417 35.35 53.1 34.7167L55 34.0833V34.0833ZM40.75 32.5C40.75 29.8083 42.8083 27.75 45.5 27.75C48.1917 27.75 50.25 29.8083 50.25 32.5C50.25 35.1917 48.1917 37.25 45.5 37.25C42.8083 37.25 40.75 35.1917 40.75 32.5Z" fill="black"/>
<path d="M46.5 36C46.5 36.828 45.828 37.5 45 37.5C44.172 37.5 43.5 36.828 43.5 36C43.5 35.172 44.172 34.5 45 34.5C45.828 34.5 46.5 35.172 46.5 36Z" fill="black"/>
<path d="M54.4 41.8C54.3 41.5 54.2 41.2 54 40.9L54.3 40.3L53.6 39.6L53.1 40C52.8 39.8 52.5 39.7 52.2 39.6L52 39L51 39L50.8 39.6C50.5 39.7 50.2 39.8 49.9 40L49.3 39.7L48.6 40.4L48.9 41C48.7 41.3 48.6 41.6 48.5 41.9L48 42L48 43L48.6 43.2C48.7 43.5 48.8 43.8 49 44.1L48.7 44.7L49.4 45.4L50 45.1C50.3 45.3 50.6 45.4 50.9 45.5L51 46L52 46L52.2 45.4C52.5 45.3 52.8 45.2 53.1 45L53.7 45.3L54.4 44.6L54 44.1C54.2 43.8 54.3 43.5 54.4 43.2L55 43L55 42L54.4 41.8ZM51.5 44C50.7 44 50 43.3 50 42.5C50 41.7 50.7 41 51.5 41C52.3 41 53 41.7 53 42.5C53 43.3 52.3 44 51.5 44Z" fill="black"/>
<path d="M65.3492 39.7593L70.2967 44H6.70326L11.6508 39.7593C11.8724 39.5693 12 39.2919 12 39C12 38.7081 11.8724 38.4307 11.6508 38.2407L6.70326 34H70.2967L65.3492 38.2407C65.1276 38.4307 65 38.7081 65 39C65 39.2919 65.1276 39.5693 65.3492 39.7593Z" fill="white" stroke="black" stroke-width="2" stroke-linejoin="round"/>
<path d="M24.6 36.384C25.192 36.384 25.7093 36.5013 26.152 36.736C26.5947 36.9707 26.936 37.3013 27.176 37.728C27.4213 38.1493 27.544 38.6373 27.544 39.192C27.544 39.7413 27.4213 40.2293 27.176 40.656C26.936 41.0827 26.592 41.4133 26.144 41.648C25.7013 41.8827 25.1867 42 24.6 42H22.496V36.384H24.6ZM24.512 40.816C25.0293 40.816 25.432 40.6747 25.72 40.392C26.008 40.1093 26.152 39.7093 26.152 39.192C26.152 38.6747 26.008 38.272 25.72 37.984C25.432 37.696 25.0293 37.552 24.512 37.552H23.864V40.816H24.512ZM31.2765 37.48V38.616H33.1085V39.672H31.2765V40.904H33.3485V42H29.9085V36.384H33.3485V37.48H31.2765ZM35.6046 39.184C35.6046 38.6293 35.7246 38.136 35.9646 37.704C36.2046 37.2667 36.538 36.928 36.9646 36.688C37.3966 36.4427 37.8846 36.32 38.4286 36.32C39.0953 36.32 39.666 36.496 40.1406 36.848C40.6153 37.2 40.9326 37.68 41.0926 38.288H39.5886C39.4766 38.0533 39.3166 37.8747 39.1086 37.752C38.906 37.6293 38.674 37.568 38.4126 37.568C37.9913 37.568 37.65 37.7147 37.3886 38.008C37.1273 38.3013 36.9966 38.6933 36.9966 39.184C36.9966 39.6747 37.1273 40.0667 37.3886 40.36C37.65 40.6533 37.9913 40.8 38.4126 40.8C38.674 40.8 38.906 40.7387 39.1086 40.616C39.3166 40.4933 39.4766 40.3147 39.5886 40.08H41.0926C40.9326 40.688 40.6153 41.168 40.1406 41.52C39.666 41.8667 39.0953 42.04 38.4286 42.04C37.8846 42.04 37.3966 41.92 36.9646 41.68C36.538 41.4347 36.2046 41.096 35.9646 40.664C35.7246 40.232 35.6046 39.7387 35.6046 39.184ZM47.0264 41.008H44.9304L44.5944 42H43.1624L45.1944 36.384H46.7784L48.8104 42H47.3624L47.0264 41.008ZM46.6744 39.952L45.9784 37.896L45.2904 39.952H46.6744ZM52.3968 40.944H54.1888V42H51.0288V36.384H52.3968V40.944Z" fill="black"/>
</svg>
