<svg width="76" height="76" viewBox="0 0 76 76" fill="none" xmlns="http://www.w3.org/2000/svg">
<circle cx="38" cy="38" r="38" fill="#E4E4E4"/>
<circle cx="38.5" cy="38.5" r="26" fill="white" stroke="black" stroke-width="3"/>
<path d="M26.5 21C26.5 20.1716 27.1716 19.5 28 19.5H48C48.8284 19.5 49.5 20.1716 49.5 21V30.5H26.5V21Z" fill="#D9D9D9" fill-opacity="0.03" stroke="black" stroke-width="3"/>
<path d="M24.5 51C24.5 47.4101 27.4101 44.5 31 44.5H45C48.5899 44.5 51.5 47.4101 51.5 51V53C51.5 53.8284 50.8284 54.5 50 54.5H26C25.1716 54.5 24.5 53.8284 24.5 53V51Z" stroke="black" stroke-width="3"/>
<path d="M18.5 39C18.5 35.4101 21.4101 32.5 25 32.5H51C54.5899 32.5 57.5 35.4101 57.5 39V48C57.5 48.8284 56.8284 49.5 56 49.5H20C19.1716 49.5 18.5 48.8284 18.5 48V39Z" stroke="black" stroke-width="3"/>
<path d="M65.3492 38.7593L70.2967 43H6.70326L11.6508 38.7593C11.8724 38.5693 12 38.2919 12 38C12 37.7081 11.8724 37.4307 11.6508 37.2407L6.70326 33H70.2967L65.3492 37.2407C65.1276 37.4307 65 37.7081 65 38C65 38.2919 65.1276 38.5693 65.3492 38.7593Z" fill="white" stroke="black" stroke-width="2" stroke-linejoin="round"/>
<path d="M18.776 37.192C18.776 37.5173 18.7013 37.816 18.552 38.088C18.4027 38.3547 18.1733 38.5707 17.864 38.736C17.5547 38.9013 17.1707 38.984 16.712 38.984H15.864V41H14.496V35.384H16.712C17.16 35.384 17.5387 35.4613 17.848 35.616C18.1573 35.7707 18.3893 35.984 18.544 36.256C18.6987 36.528 18.776 36.84 18.776 37.192ZM16.608 37.896C16.8693 37.896 17.064 37.8347 17.192 37.712C17.32 37.5893 17.384 37.416 17.384 37.192C17.384 36.968 17.32 36.7947 17.192 36.672C17.064 36.5493 16.8693 36.488 16.608 36.488H15.864V37.896H16.608ZM23.9522 41L22.7842 38.88H22.4562V41H21.0882V35.384H23.3842C23.8269 35.384 24.2029 35.4613 24.5122 35.616C24.8269 35.7707 25.0615 35.984 25.2162 36.256C25.3709 36.5227 25.4482 36.8213 25.4482 37.152C25.4482 37.5253 25.3415 37.8587 25.1282 38.152C24.9202 38.4453 24.6109 38.6533 24.2002 38.776L25.4962 41H23.9522ZM22.4562 37.912H23.3042C23.5549 37.912 23.7415 37.8507 23.8642 37.728C23.9922 37.6053 24.0562 37.432 24.0562 37.208C24.0562 36.9947 23.9922 36.8267 23.8642 36.704C23.7415 36.5813 23.5549 36.52 23.3042 36.52H22.4562V37.912ZM29.2749 35.384V41H27.9069V35.384H29.2749ZM36.8903 41H35.5223L33.2343 37.536V41H31.8663V35.384H33.2343L35.5223 38.864V35.384H36.8903V41ZM43.5219 35.384V36.48H42.0339V41H40.6659V36.48H39.1779V35.384H43.5219ZM47.1765 35.384V41H45.8085V35.384H47.1765ZM54.7919 41H53.4239L51.1359 37.536V41H49.7679V35.384H51.1359L53.4239 38.864V35.384H54.7919V41ZM61.1115 37.16C61.0102 36.9733 60.8635 36.832 60.6715 36.736C60.4848 36.6347 60.2635 36.584 60.0075 36.584C59.5648 36.584 59.2102 36.7307 58.9435 37.024C58.6768 37.312 58.5435 37.6987 58.5435 38.184C58.5435 38.7013 58.6822 39.1067 58.9595 39.4C59.2422 39.688 59.6288 39.832 60.1195 39.832C60.4555 39.832 60.7382 39.7467 60.9675 39.576C61.2022 39.4053 61.3728 39.16 61.4795 38.84H59.7435V37.832H62.7195V39.104C62.6182 39.4453 62.4448 39.7627 62.1995 40.056C61.9595 40.3493 61.6528 40.5867 61.2795 40.768C60.9062 40.9493 60.4848 41.04 60.0155 41.04C59.4608 41.04 58.9648 40.92 58.5275 40.68C58.0955 40.4347 57.7568 40.096 57.5115 39.664C57.2715 39.232 57.1515 38.7387 57.1515 38.184C57.1515 37.6293 57.2715 37.136 57.5115 36.704C57.7568 36.2667 58.0955 35.928 58.5275 35.688C58.9595 35.4427 59.4528 35.32 60.0075 35.32C60.6795 35.32 61.2448 35.4827 61.7035 35.808C62.1675 36.1333 62.4742 36.584 62.6235 37.16H61.1115Z" fill="black"/>
</svg>
