<svg width="76" height="76" viewBox="0 0 76 76" fill="none" xmlns="http://www.w3.org/2000/svg">
<circle cx="38" cy="38" r="38" fill="#E4E4E4"/>
<circle cx="38.5" cy="38.5" r="26" fill="white" stroke="black" stroke-width="3"/>
<path d="M52.582 22H24.418C22.5333 22 21 23.5333 21 25.418V46.3359C21 48.2206 22.5333 49.7539 24.418 49.7539H35.082V52.8984H34.3984C33.4857 52.8984 32.6278 53.2541 31.9818 53.8998C31.3362 54.5457 30.9805 55.4037 30.9805 56.3164C30.9805 56.694 31.2865 57 31.6641 57H45.3359C45.7135 57 46.0195 56.694 46.0195 56.3164C46.0195 54.4317 44.4863 52.8984 42.6016 52.8984H41.918V49.7539H52.582C54.4667 49.7539 56 48.2206 56 46.3359V25.418C56 23.5333 54.4667 22 52.582 22ZM24.418 23.3672H52.582C53.7129 23.3672 54.6328 24.2871 54.6328 25.418V42.918H51.4883V27.1953C51.4883 26.8177 51.1823 26.5117 50.8047 26.5117H45.3359C44.9584 26.5117 44.6523 26.8177 44.6523 27.1953V42.918H41.2306C41.2234 42.2109 41.205 41.5139 41.1756 40.8378C41.056 38.0538 40.7834 36.1888 40.6416 35.3685C42.052 34.3301 42.4371 32.4053 41.5748 30.91L39.2055 26.8063C39.0832 26.5948 38.8576 26.4645 38.6135 26.4645C38.3692 26.4645 38.1435 26.5948 38.0215 26.8063L35.6511 30.9102C34.8382 32.3201 35.1264 34.1463 36.4033 35.2241C36.2554 36.042 35.9568 37.9737 35.827 40.8365C35.7963 41.5198 35.7768 42.2173 35.7694 42.918H32.3477V32.6641C32.3477 32.5556 32.322 32.4568 32.2801 32.369C32.2782 32.3655 32.2772 32.3618 32.2756 32.3583L29.5412 26.8896C29.4253 26.6581 29.1887 26.5117 28.9297 26.5117C28.6707 26.5117 28.4341 26.6581 28.3182 26.8896L25.5838 32.3583C25.5822 32.3618 25.5811 32.3655 25.5795 32.369C25.5368 32.4576 25.5117 32.5581 25.5117 32.6641V42.918H22.3672V25.418C22.3672 24.2871 23.2871 23.3672 24.418 23.3672ZM46.0195 42.918V27.8789H50.1211V29.2461H49.4375C49.0599 29.2461 48.7539 29.5521 48.7539 29.9297C48.7539 30.3073 49.0599 30.6133 49.4375 30.6133H50.1211V32.6641H49.4375C49.0599 32.6641 48.7539 32.9701 48.7539 33.3477C48.7539 33.7252 49.0599 34.0312 49.4375 34.0312H50.1211V36.082H49.4375C49.0599 36.082 48.7539 36.388 48.7539 36.7656C48.7539 37.1432 49.0599 37.4492 49.4375 37.4492H50.1211V40.1836H49.4375C49.0599 40.1836 48.7539 40.4896 48.7539 40.8672C48.7539 41.2448 49.0599 41.5508 49.4375 41.5508H50.1211V42.918H46.0195ZM38.6135 36.0348C38.8618 36.0348 39.1091 36.0062 39.351 35.9528C39.4779 36.7659 39.6642 38.2046 39.7745 40.1836H37.23C37.3456 38.206 37.5408 36.7448 37.6757 35.9042C37.9785 35.9904 38.2939 36.0348 38.6135 36.0348ZM38.6135 34.6676C37.0511 34.6676 36.0436 32.9671 36.8353 31.5935L38.6135 28.5152L40.3906 31.5933C41.1794 32.9613 40.1858 34.6676 38.6135 34.6676ZM37.1673 41.5508H39.8346C39.849 41.9999 39.8589 42.4568 39.8637 42.918H37.1366C37.1416 42.4597 37.152 42.0029 37.1673 41.5508ZM29.6133 42.918V33.3477H30.9805V42.918H29.6133ZM26.8789 42.918V33.3477H28.2461V42.918H26.8789ZM27.3013 31.9805L28.9297 28.7238L30.558 31.9805H27.3013ZM44.5351 55.6328H32.4641C32.5645 55.3479 32.7284 55.0867 32.9485 54.8664C33.3362 54.479 33.851 54.2656 34.3984 54.2656H42.6016C43.4929 54.2656 44.2531 54.8371 44.5351 55.6328ZM40.5508 52.8984H36.4492V49.7539H40.5508V52.8984ZM52.582 48.3867H24.418C23.2871 48.3867 22.3672 47.4668 22.3672 46.3359V44.2852H54.6328V46.3359C54.6328 47.4668 53.7129 48.3867 52.582 48.3867Z" fill="black"/>
<path d="M25 23.5H52C53.3807 23.5 54.5 24.6193 54.5 26V46C54.5 47.3807 53.3807 48.5 52 48.5H25C23.6193 48.5 22.5 47.3807 22.5 46V26C22.5 24.6193 23.6193 23.5 25 23.5Z" stroke="black" stroke-width="3"/>
<g filter="url(#filter0_d_270_89)">
<rect x="34" y="49" width="8" height="4" stroke="black" stroke-width="2" shape-rendering="crispEdges"/>
</g>
<g filter="url(#filter1_d_270_89)">
<path d="M34.2857 53H41.7143C43.5289 53 45 54.4711 45 56.2857C45 56.6802 44.6802 57 44.2857 57H31.7143C31.3198 57 31 56.6802 31 56.2857C31 54.4711 32.4711 53 34.2857 53Z" stroke="black" stroke-width="2" shape-rendering="crispEdges"/>
</g>
<path d="M21.5 42.5H55.5" stroke="black" stroke-width="2"/>
<path d="M65.3492 38.7593L70.2967 43H6.70326L11.6508 38.7593C11.8724 38.5693 12 38.2919 12 38C12 37.7081 11.8724 37.4307 11.6508 37.2407L6.70326 33H70.2967L65.3492 37.2407C65.1276 37.4307 65 37.7081 65 38C65 38.2919 65.1276 38.5693 65.3492 38.7593Z" fill="white" stroke="black" stroke-width="2" stroke-linejoin="round"/>
<path d="M16.528 41.056C16.1173 41.056 15.7493 40.9893 15.424 40.856C15.0987 40.7227 14.8373 40.5253 14.64 40.264C14.448 40.0027 14.3467 39.688 14.336 39.32H15.792C15.8133 39.528 15.8853 39.688 16.008 39.8C16.1307 39.9067 16.2907 39.96 16.488 39.96C16.6907 39.96 16.8507 39.9147 16.968 39.824C17.0853 39.728 17.144 39.5973 17.144 39.432C17.144 39.2933 17.096 39.1787 17 39.088C16.9093 38.9973 16.7947 38.9227 16.656 38.864C16.5227 38.8053 16.3307 38.7387 16.08 38.664C15.7173 38.552 15.4213 38.44 15.192 38.328C14.9627 38.216 14.7653 38.0507 14.6 37.832C14.4347 37.6133 14.352 37.328 14.352 36.976C14.352 36.4533 14.5413 36.0453 14.92 35.752C15.2987 35.4533 15.792 35.304 16.4 35.304C17.0187 35.304 17.5173 35.4533 17.896 35.752C18.2747 36.0453 18.4773 36.456 18.504 36.984H17.024C17.0133 36.8027 16.9467 36.6613 16.824 36.56C16.7013 36.4533 16.544 36.4 16.352 36.4C16.1867 36.4 16.0533 36.4453 15.952 36.536C15.8507 36.6213 15.8 36.7467 15.8 36.912C15.8 37.0933 15.8853 37.2347 16.056 37.336C16.2267 37.4373 16.4933 37.5467 16.856 37.664C17.2187 37.7867 17.512 37.904 17.736 38.016C17.9653 38.128 18.1627 38.2907 18.328 38.504C18.4933 38.7173 18.576 38.992 18.576 39.328C18.576 39.648 18.4933 39.9387 18.328 40.2C18.168 40.4613 17.9333 40.6693 17.624 40.824C17.3147 40.9787 16.9493 41.056 16.528 41.056ZM24.2579 35.384V36.48H22.7699V41H21.4019V36.48H19.9139V35.384H24.2579ZM28.6084 41L27.4404 38.88H27.1124V41H25.7444V35.384H28.0404C28.4831 35.384 28.8591 35.4613 29.1684 35.616C29.4831 35.7707 29.7178 35.984 29.8724 36.256C30.0271 36.5227 30.1044 36.8213 30.1044 37.152C30.1044 37.5253 29.9978 37.8587 29.7844 38.152C29.5764 38.4453 29.2671 38.6533 28.8564 38.776L30.1524 41H28.6084ZM27.1124 37.912H27.9604C28.2111 37.912 28.3978 37.8507 28.5204 37.728C28.6484 37.6053 28.7124 37.432 28.7124 37.208C28.7124 36.9947 28.6484 36.8267 28.5204 36.704C28.3978 36.5813 28.2111 36.52 27.9604 36.52H27.1124V37.912ZM33.1312 35.384V41H31.7632V35.384H33.1312ZM39.2026 37.192C39.2026 37.5173 39.1279 37.816 38.9786 38.088C38.8292 38.3547 38.5999 38.5707 38.2906 38.736C37.9812 38.9013 37.5972 38.984 37.1386 38.984H36.2906V41H34.9226V35.384H37.1386C37.5866 35.384 37.9652 35.4613 38.2746 35.616C38.5839 35.7707 38.8159 35.984 38.9706 36.256C39.1252 36.528 39.2026 36.84 39.2026 37.192ZM37.0346 37.896C37.2959 37.896 37.4906 37.8347 37.6186 37.712C37.7466 37.5893 37.8106 37.416 37.8106 37.192C37.8106 36.968 37.7466 36.7947 37.6186 36.672C37.4906 36.5493 37.2959 36.488 37.0346 36.488H36.2906V37.896H37.0346ZM44.7548 35.384V36.48H43.2668V41H41.8988V36.48H40.4108V35.384H44.7548ZM47.6093 35.384V41H46.2413V35.384H47.6093ZM54.4247 41H53.0567L50.7687 37.536V41H49.4007V35.384H50.7687L53.0567 38.864V35.384H54.4247V41ZM59.9443 37.16C59.843 36.9733 59.6963 36.832 59.5043 36.736C59.3176 36.6347 59.0963 36.584 58.8403 36.584C58.3976 36.584 58.043 36.7307 57.7763 37.024C57.5096 37.312 57.3763 37.6987 57.3763 38.184C57.3763 38.7013 57.515 39.1067 57.7923 39.4C58.075 39.688 58.4616 39.832 58.9523 39.832C59.2883 39.832 59.571 39.7467 59.8003 39.576C60.035 39.4053 60.2056 39.16 60.3123 38.84H58.5763V37.832H61.5523V39.104C61.451 39.4453 61.2776 39.7627 61.0323 40.056C60.7923 40.3493 60.4856 40.5867 60.1123 40.768C59.739 40.9493 59.3176 41.04 58.8483 41.04C58.2936 41.04 57.7976 40.92 57.3603 40.68C56.9283 40.4347 56.5896 40.096 56.3443 39.664C56.1043 39.232 55.9843 38.7387 55.9843 38.184C55.9843 37.6293 56.1043 37.136 56.3443 36.704C56.5896 36.2667 56.9283 35.928 57.3603 35.688C57.7923 35.4427 58.2856 35.32 58.8403 35.32C59.5123 35.32 60.0776 35.4827 60.5363 35.808C61.0003 36.1333 61.307 36.584 61.4563 37.16H59.9443Z" fill="black"/>
<defs>
<filter id="filter0_d_270_89" x="29" y="48" width="18" height="14" filterUnits="userSpaceOnUse" color-interpolation-filters="sRGB">
<feFlood flood-opacity="0" result="BackgroundImageFix"/>
<feColorMatrix in="SourceAlpha" type="matrix" values="0 0 0 0 0 0 0 0 0 0 0 0 0 0 0 0 0 0 127 0" result="hardAlpha"/>
<feOffset dy="4"/>
<feGaussianBlur stdDeviation="2"/>
<feComposite in2="hardAlpha" operator="out"/>
<feColorMatrix type="matrix" values="0 0 0 0 0 0 0 0 0 0 0 0 0 0 0 0 0 0 0.25 0"/>
<feBlend mode="normal" in2="BackgroundImageFix" result="effect1_dropShadow_270_89"/>
<feBlend mode="normal" in="SourceGraphic" in2="effect1_dropShadow_270_89" result="shape"/>
</filter>
<filter id="filter1_d_270_89" x="26" y="52" width="24" height="14" filterUnits="userSpaceOnUse" color-interpolation-filters="sRGB">
<feFlood flood-opacity="0" result="BackgroundImageFix"/>
<feColorMatrix in="SourceAlpha" type="matrix" values="0 0 0 0 0 0 0 0 0 0 0 0 0 0 0 0 0 0 127 0" result="hardAlpha"/>
<feOffset dy="4"/>
<feGaussianBlur stdDeviation="2"/>
<feComposite in2="hardAlpha" operator="out"/>
<feColorMatrix type="matrix" values="0 0 0 0 0 0 0 0 0 0 0 0 0 0 0 0 0 0 0.25 0"/>
<feBlend mode="normal" in2="BackgroundImageFix" result="effect1_dropShadow_270_89"/>
<feBlend mode="normal" in="SourceGraphic" in2="effect1_dropShadow_270_89" result="shape"/>
</filter>
</defs>
</svg>
