<svg width="28" height="28" viewBox="0 0 28 28" fill="none" xmlns="http://www.w3.org/2000/svg">
<g clip-path="url(#clip0_258_923)">
<path d="M14 0C21.7199 0 28 6.28009 28 14C28 21.7199 21.7199 28 14 28C6.28009 28 0 21.7199 0 14C0 6.28009 6.28009 0 14 0Z" fill="#F44336"/>
<path d="M8.84443 17.5059C8.38834 17.9622 8.38834 18.6994 8.84443 19.1557C9.07194 19.3832 9.37058 19.4975 9.66944 19.4975C9.96809 19.4975 10.2667 19.3832 10.4942 19.1557L14 15.6497L17.5058 19.1557C17.7333 19.3832 18.0319 19.4975 18.3306 19.4975C18.6294 19.4975 18.9281 19.3832 19.1556 19.1557C19.6117 18.6994 19.6117 17.9622 19.1556 17.5059L15.6496 14.0001L19.1556 10.4943C19.6117 10.038 19.6117 9.3008 19.1556 8.84451C18.6993 8.38842 17.9621 8.38842 17.5058 8.84451L14 12.3505L10.4942 8.84451C10.0379 8.38842 9.30073 8.38842 8.84443 8.84451C8.38834 9.3008 8.38834 10.038 8.84443 10.4943L12.3504 14.0001L8.84443 17.5059Z" fill="#FAFAFA"/>
</g>
<defs>
<clipPath id="clip0_258_923">
<rect width="28" height="28" fill="white" transform="matrix(-1 0 0 1 28 0)"/>
</clipPath>
</defs>
</svg>
